[2026-03-03T16:12:43.796Z] Pipeline started.
[2026-03-03T16:12:44.714Z] Downloading YouTube: https://youtube.com/shorts/-grO33ayfNc?si=ydQI8pQlQdSs0MoH
[2026-03-03T16:12:49.537Z] YouTube download done.
[2026-03-03T16:12:49.945Z] Extracting audio...
[2026-03-03T16:12:51.199Z] Transcribing...
[2026-03-03T16:12:53.897Z] Translating with GPT-4o...
[2026-03-03T16:12:56.639Z] TTS seg 1/5: "Facebook ilk yaratdığım şey deyil."
[2026-03-03T16:12:56.642Z] ElevenLabs TTS segment 0: "Facebook ilk yaratdığım şey deyil...."
[2026-03-03T16:12:59.631Z] Segment 0 written via ElevenLabs ✅
[2026-03-03T16:12:59.846Z] TTS seg 2/5: "Çat sistemləri, oyunlar, öyrənmə alətlər"
[2026-03-03T16:12:59.848Z] ElevenLabs TTS segment 1: "Çat sistemləri, oyunlar, öyrənmə alətlər..."
[2026-03-03T16:13:01.555Z] Segment 1 written via ElevenLabs ✅
[2026-03-03T16:13:01.889Z] TTS seg 3/5: "J.K. Rowling Harri Potteri yazıb nəşr et"
[2026-03-03T16:13:01.891Z] ElevenLabs TTS segment 2: "J.K. Rowling Harri Potteri yazıb nəşr et..."
[2026-03-03T16:13:03.439Z] Segment 2 written via ElevenLabs ✅
[2026-03-03T16:13:03.676Z] TTS seg 4/5: "Hətta Beyonsə Halo-nu əldə etmək üçün yü"
[2026-03-03T16:13:03.678Z] ElevenLabs TTS segment 3: "Hətta Beyonsə Halo-nu əldə etmək üçün yü..."
[2026-03-03T16:13:05.145Z] Segment 3 written via ElevenLabs ✅
[2026-03-03T16:13:05.445Z] TTS seg 5/5: "Ən böyük uğurlar uğursuz olmaq azadlığın"
[2026-03-03T16:13:05.448Z] ElevenLabs TTS segment 4: "Ən böyük uğurlar uğursuz olmaq azadlığın..."
[2026-03-03T16:13:06.684Z] Segment 4 written via ElevenLabs ✅
[2026-03-03T16:13:06.910Z] Running FFmpeg: C:\Users\fullm\Downloads\dubverse-saas\backend\node_modules\ffmpeg-static\ffmpeg.exe -i C:\Users\fullm\Downloads\dubverse-saas\tmp\uploads\d1c9fb49-146b-4661-b042-50baae1d100a\audio.mp3 -i C:\Users\fullm\Downloads\dubverse-saas\tmp\uploads\d1c9fb49-146b-4661-b042-50baae1d100a\segments\seg_0.mp3 -i C:\Users\fullm\Downloads\dubverse-saas\tmp\uploads\d1c9fb49-146b-4661-b042-50baae1d100a\segments\seg_1.mp3 -i C:\Users\fullm\Downloads\dubverse-saas\tmp\uploads\d1c9fb49-146b-4661-b042-50baae1d100a\segments\seg_2.mp3 -i C:\Users\fullm\Downloads\dubverse-saas\tmp\uploads\d1c9fb49-146b-4661-b042-50baae1d100a\segments\seg_3.mp3 -i C:\Users\fullm\Downloads\dubverse-saas\tmp\uploads\d1c9fb49-146b-4661-b042-50baae1d100a\segments\seg_4.mp3 -filter_complex [1:a]aformat=sample_rates=44100:channel_layouts=stereo,adelay=0|0[s0];[2:a]aformat=sample_rates=44100:channel_layouts=stereo,adelay=2500|2500[s1];[3:a]aformat=sample_rates=44100:channel_layouts=stereo,adelay=8340|8340[s2];[4:a]aformat=sample_rates=44100:channel_layouts=stereo,adelay=14880|14880[s3];[5:a]aformat=sample_rates=44100:channel_layouts=stereo,adelay=20340|20340[s4];[0:a]aformat=sample_rates=44100:channel_layouts=stereo,volume=0.12[bg];[bg][s0][s1][s2][s3][s4]amix=inputs=6:duration=first:dropout_transition=2,volume=6[mixed];[mixed]loudnorm=I=-23:TP=-1.5:LRA=11[out] -map [out] -acodec libmp3lame -ar 44100 -b:a 192k -y C:\Users\fullm\Downloads\dubverse-saas\tmp\uploads\d1c9fb49-146b-4661-b042-50baae1d100a\dubbed_audio.mp3
[2026-03-03T16:13:07.106Z] FFmpeg Err: Input #0, mp3, from 'C:\Users\fullm\Downloads\dubverse-saas\tmp\uploads\d1c9fb49-146b-4661-b042-50baae1d100a\audio.mp3':
  Metadata:
    major_brand     : mp42
    minor_version   : 0
    compatible_brands: isommp42
    encoder         : Lavf60.16.100
  Duration: 00:00:25.73, start: 0.025057, bitrate: 128 kb/s

[2026-03-03T16:13:07.108Z] FFmpeg Err:   Stream #0:0: Audio: mp3, 44100 Hz, stereo, fltp, 128 kb/s
    Metadata:
      encoder         : Lavc60.31
Input #1, mp3, from 'C:\Users\fullm\Downloads\dubverse-saas\tmp\uploads\d1c9fb49-146b-4661-b042-50baae1d100a\segments\seg_0.mp3':
  Metadata:
    encoder         : Lavf60.16.100
  Duration: 00:00:02.40, start: 0.025057, bitrate: 64 kb/s
  Stream #1:0: Audio: mp3, 44100 Hz, mono, fltp, 64 kb/s
Input #2, mp3, from 'C:\Users\fullm\Downloads\dubverse-saas\tmp\uploads\d1c9fb49-146b-4661-b042-50baae1d100a\segments\seg_1.mp3':
  Metadata:
    encoder         : Lavf60.16.100
  Duration: 00:00:06.22, start: 0.025057, bitrate: 64 kb/s
  Stream #2:0: Audio: mp3, 44100 Hz, mono, fltp, 64 kb/s
Input #3, mp3, from 'C:\Users\fullm\Downloads\dubverse-saas\tmp\uploads\d1c9fb49-146b-4661-b042-50baae1d100a\segments\seg_2.mp3':
  Metadata:
    encoder         : Lavf60.16.100
  Duration: 00:00:05.93, start: 0.025057, bitrate: 64 kb/s
  Stream #3:0: Audio: mp3, 44100 Hz, mono, fltp, 64 kb/s

[2026-03-03T16:13:07.111Z] FFmpeg Err: Input #4, mp3, from 'C:\Users\fullm\Downloads\dubverse-saas\tmp\uploads\d1c9fb49-146b-4661-b042-50baae1d100a\segments\seg_3.mp3':
  Metadata:
    encoder         : Lavf60.16.100
  Duration: 00:00:06.11, start: 0.025057, bitrate: 64 kb/s
  Stream #4:0: Audio: mp3, 44100 Hz, mono, fltp, 64 kb/s
Input #5, mp3, from 'C:\Users\fullm\Downloads\dubverse-saas\tmp\uploads\d1c9fb49-146b-4661-b042-50baae1d100a\segments\seg_4.mp3':
  Metadata:
    encoder         : Lavf60.16.100
  Duration: 00:00:03.79, start: 0.025057, bitrate: 64 kb/s
  Stream #5:0: Audio: mp3, 44100 Hz, mono, fltp, 64 kb/s

[2026-03-03T16:13:07.114Z] FFmpeg Err: Stream mapping:
  Stream #0:0 (mp3float) -> aformat:default
  Stream #1:0 (mp3float) -> aformat:default
  Stream #2:0 (mp3float) -> aformat:default
  Stream #3:0 (mp3float) -> aformat:default
  Stream #4:0 (mp3float) -> aformat:default
  Stream #5:0 (mp3float) -> aformat:default
  loudnorm:default -> Stream #0:0 (libmp3lame)

[2026-03-03T16:13:07.219Z] FFmpeg Err: Output #0, mp3, to 'C:\Users\fullm\Downloads\dubverse-saas\tmp\uploads\d1c9fb49-146b-4661-b042-50baae1d100a\dubbed_audio.mp3':
  Metadata:
    major_brand     : mp42
    minor_version   : 0
    compatible_brands: isommp42
    TSSE            : Lavf60.16.100
  Stream #0:0: Audio: mp3, 44100 Hz, stereo, fltp, 192 kb/s
    Metadata:
      encoder         : Lavc60.31.102 libmp3lame

[2026-03-03T16:13:07.221Z] FFmpeg Err: size=       0kB time=-00:00:00.02 bitrate=  -0.0kbits/s speed=N/A    
[2026-03-03T16:13:07.687Z] FFmpeg Err: size=     153kB time=00:00:06.47 bitrate= 193.7kbits/s speed=11.3x    
[2026-03-03T16:13:08.188Z] FFmpeg Err: size=     256kB time=00:00:13.37 bitrate= 156.8kbits/s speed=12.4x    
[2026-03-03T16:13:08.693Z] FFmpeg Err: size=     256kB time=00:00:20.69 bitrate= 101.4kbits/s speed=13.1x    
[2026-03-03T16:13:08.999Z] FFmpeg Err: [out#0/mp3 @ 000001f544797c80] video:0kB audio:603kB subtitle:0kB other streams:0kB global headers:0kB muxing overhead: 0.123718%
size=     604kB time=00:00:25.69 bitrate= 192.5kbits/s speed=13.6x    

[2026-03-03T16:13:09.557Z] Muxing final video...
[2026-03-03T16:13:09.560Z] Running FFmpeg: C:\Users\fullm\Downloads\dubverse-saas\backend\node_modules\ffmpeg-static\ffmpeg.exe -i C:\Users\fullm\Downloads\dubverse-saas\tmp\uploads\d1c9fb49-146b-4661-b042-50baae1d100a\video.mp4 -i C:\Users\fullm\Downloads\dubverse-saas\tmp\uploads\d1c9fb49-146b-4661-b042-50baae1d100a\dubbed_audio.mp3 -map 0:v:0 -map 1:a:0 -c:v copy -c:a aac -b:a 192k -shortest -y C:\Users\fullm\Downloads\dubverse-saas\tmp\uploads\d1c9fb49-146b-4661-b042-50baae1d100a\final_dubbed.mp4
[2026-03-03T16:13:09.640Z] FFmpeg Err: Input #0, mov,mp4,m4a,3gp,3g2,mj2, from 'C:\Users\fullm\Downloads\dubverse-saas\tmp\uploads\d1c9fb49-146b-4661-b042-50baae1d100a\video.mp4':
  Metadata:
    major_brand     : mp42
    minor_version   : 0
    compatible_brands: isommp42
    creation_time   : 2023-10-04T09:42:15.000000Z
  Duration: 00:00:25.68, start: 0.000000, bitrate: 365 kb/s

[2026-03-03T16:13:09.642Z] FFmpeg Err:   Stream #0:0[0x1](und): Video: h264 (Main) (avc1 / 0x31637661), yuv420p(tv, bt709, progressive), 360x640 [SAR 1:1 DAR 9:16], 233 kb/s, 25 fps, 25 tbr, 12800 tbn (default)
    Metadata:
      creation_time   : 2023-10-04T09:42:15.000000Z
      handler_name    : ISO Media file produced by Google Inc. Created on: 10/04/2023.
      vendor_id       : [0][0][0][0]
  Stream #0:1[0x2](eng): Audio: aac (LC) (mp4a / 0x6134706D), 44100 Hz, stereo, fltp, 128 kb/s (default)
    Metadata:
      creation_time   : 2023-10-04T09:42:15.000000Z
      handler_name    : ISO Media file produced by Google Inc. Created on: 10/04/2023.
      vendor_id       : [0][0][0][0]
Input #1, mp3, from 'C:\Users\fullm\Downloads\dubverse-saas\tmp\uploads\d1c9fb49-146b-4661-b042-50baae1d100a\dubbed_audio.mp3':
  Metadata:
    major_brand     : mp42
    minor_version   : 0
    compatible_brands: isommp42
    encoder         : Lavf60.16.100
  Duration: 00:00:25.73, start: 0.025057, bitrate: 192 kb/s
  Stream #1:0: Audio: mp3, 44100 Hz, stereo, fltp, 192 kb/s
    Metadata:
      encoder         : Lavc60.31

[2026-03-03T16:13:09.644Z] FFmpeg Err: Stream mapping:
  Stream #0:0 -> #0:0 (copy)
  Stream #1:0 -> #0:1 (mp3 (mp3float) -> aac (native))

[2026-03-03T16:13:09.651Z] FFmpeg Err: Output #0, mp4, to 'C:\Users\fullm\Downloads\dubverse-saas\tmp\uploads\d1c9fb49-146b-4661-b042-50baae1d100a\final_dubbed.mp4':
  Metadata:
    major_brand     : mp42
    minor_version   : 0
    compatible_brands: isommp42
    encoder         : Lavf60.16.100
  Stream #0:0(und): Video: h264 (Main) (avc1 / 0x31637661), yuv420p(tv, bt709, progressive), 360x640 [SAR 1:1 DAR 9:16], q=2-31, 233 kb/s, 25 fps, 25 tbr, 12800 tbn (default)
    Metadata:
      creation_time   : 2023-10-04T09:42:15.000000Z
      handler_name    : 
[2026-03-03T16:13:09.659Z] FFmpeg Err: ISO Media file produced by Google Inc. Created on: 10/04/2023.
      vendor_id       : [0][0][0][0]
  Stream #0:1: Audio: aac (LC) (mp4a / 0x6134706D), 44100 Hz, stereo, fltp, 192 kb/s
    Metadata:
      encoder         : Lavc60.31.102 aac
size=       0kB time=N/A bitrate=N/A speed=N/A    
[2026-03-03T16:13:10.144Z] FFmpeg Err: size=     256kB time=00:00:06.84 bitrate= 306.7kbits/s speed=13.7x    
[2026-03-03T16:13:10.647Z] FFmpeg Err: size=     512kB time=00:00:12.76 bitrate= 328.7kbits/s speed=12.7x    
[2026-03-03T16:13:11.148Z] FFmpeg Err: size=    1024kB time=00:00:20.32 bitrate= 412.8kbits/s speed=13.5x    
[2026-03-03T16:13:11.431Z] FFmpeg Err: [out#0/mp4 @ 000001827c03ee40] video:733kB audio:614kB subtitle:0kB other streams:0kB global headers:0kB muxing overhead: 1.584779%
size=    1368kB time=00:00:25.65 bitrate= 436.9kbits/s speed=14.3x    

[2026-03-03T16:13:11.433Z] FFmpeg Err: [aac @ 000001827c03cfc0] Qavg: 718.239

[2026-03-03T16:13:11.871Z] ✅ Pipeline finished successfully!
